# xmcd
# 
# Track frame offsets:
#     187
#     58067
#     85750
#     164812
#     232372
#     279402
#     329407
# 
# Disc length: 4442
# 
# Revision: 11
# Processed by: cddbd v1.5.2PL0 Copyright (c) Steve Scherf et al.
# Submitted via: fre:ac v1.0.17
# 
DISCID=67115807
DTITLE=The Orb - U.F.Orb (Japanese Import)
DYEAR=1992
DGENRE=Ambient
TTITLE0=O.O.B.E
TTITLE1=U.F.Orb
TTITLE2=Blue Room
TTITLE3=Towers Of Dub
TTITLE4=Close Encounters
TTITLE5=Majestic
TTITLE6=Sticky End
EXTD=
EXTT0=12'51"
EXTT1=6'08"
EXTT2=17'34"
EXTT3=15'00"
EXTT4=10'27"
EXTT5=11'06"
EXTT6=00'49"
PLAYORDER=
